<svg viewBox="-0.5 -0.5 16 16" fill="none" xmlns="http://www.w3.org/2000/svg" id="Apps--Streamline-Unicons.svg" height="16" width="16"><desc>Apps Streamline Icon: https://streamlinehq.com</desc><path d="M6.029999999999999 0.15H0.885C0.444 0.15 0.15 0.444 0.15 0.885V6.029999999999999C0.15 6.471 0.444 6.765 0.885 6.765H6.029999999999999C6.471 6.765 6.765 6.471 6.765 6.029999999999999V0.885C6.765 0.444 6.471 0.15 6.029999999999999 0.15ZM6.029999999999999 8.235H0.885C0.444 8.235 0.15 8.529 0.15 8.97V14.115C0.15 14.556000000000001 0.444 14.850000000000001 0.885 14.850000000000001H6.029999999999999C6.471 14.850000000000001 6.765 14.556000000000001 6.765 14.115V8.97C6.765 8.529 6.471 8.235 6.029999999999999 8.235ZM14.115 0.15H8.97C8.529 0.15 8.235 0.444 8.235 0.885V6.029999999999999C8.235 6.471 8.529 6.765 8.97 6.765H14.115C14.556000000000001 6.765 14.850000000000001 6.471 14.850000000000001 6.029999999999999V0.885C14.850000000000001 0.444 14.556000000000001 0.15 14.115 0.15ZM14.115 8.235H8.97C8.529 8.235 8.235 8.529 8.235 8.97V14.115C8.235 14.556000000000001 8.529 14.850000000000001 8.97 14.850000000000001H14.115C14.556000000000001 14.850000000000001 14.850000000000001 14.556000000000001 14.850000000000001 14.115V8.97C14.850000000000001 8.529 14.556000000000001 8.235 14.115 8.235Z" fill="#000000" stroke-width="1"></path></svg>