<svg xmlns="http://www.w3.org/2000/svg" viewBox="-0.5 -0.5 16 16" fill="#000000" aria-hidden="true" id="User-Circle--Streamline-Heroicons.svg" height="16" width="16"><desc>User Circle Streamline Icon: https://streamlinehq.com</desc><path fill-rule="evenodd" d="M12.539437499999998 12.8500625C14.0159375 11.4626875 14.8523125 9.5260625 14.850000000000001 7.5C14.850000000000001 3.4405625 11.559437500000001 0.15 7.5 0.15S0.15 3.4405625 0.15 7.5C0.1476875 9.5260625 0.9840625000000001 11.4626875 2.4605625 12.8500625C3.8226875 14.13675 5.6261874999999995 14.8525 7.5 14.850000000000001C9.3738125 14.8525 11.177312500000001 14.13675 12.539437499999998 12.8500625ZM3.0862499999999997 11.8813125C4.158375 10.540000000000001 5.782875 9.7598125 7.5 9.7615625C9.217125000000001 9.7598125 10.841624999999999 10.540062500000001 11.91375 11.881375C10.7474375 13.0594375 9.1578125 13.721375 7.5 13.71925C5.8421875 13.721375 4.2525625 13.0594375 3.0862499999999997 11.881375ZM10.3269375 5.238437500000001C10.3269375 7.414625 7.971125 8.774750000000001 6.0865625 7.686625C5.211875 7.181687500000001 4.6730624999999995 6.2484375000000005 4.6730624999999995 5.238437500000001C4.6730624999999995 3.0623125 7.028875 1.7021875 8.9134375 2.7902500000000003C9.788124999999999 3.2952500000000002 10.3269375 4.2285 10.3269375 5.238437500000001Z" clip-rule="evenodd" stroke-width="1"></path></svg>